<svg xmlns="http://www.w3.org/2000/svg" viewBox="0 0 64 64">
  <rect width="64" height="64" rx="10" fill="#080608"/>
  <circle cx="32" cy="32" r="22" fill="none" stroke="#FFC627" stroke-width="2.5"/>
  <circle cx="32" cy="32" r="14" fill="none" stroke="#FFC627" stroke-width="1.5" stroke-dasharray="4 3"/>
  <circle cx="32" cy="32" r="4" fill="#FFC627"/>
  <line x1="32" y1="6" x2="32" y2="16" stroke="#FFC627" stroke-width="2.5" stroke-linecap="round"/>
  <line x1="32" y1="48" x2="32" y2="58" stroke="#FFC627" stroke-width="2.5" stroke-linecap="round"/>
  <line x1="6" y1="32" x2="16" y2="32" stroke="#FFC627" stroke-width="2.5" stroke-linecap="round"/>
  <line x1="48" y1="32" x2="58" y2="32" stroke="#FFC627" stroke-width="2.5" stroke-linecap="round"/>
  <line x1="14" y1="14" x2="20" y2="14" stroke="#FFC627" stroke-width="1.5" stroke-linecap="round" stroke-opacity="0.6"/>
  <line x1="14" y1="14" x2="14" y2="20" stroke="#FFC627" stroke-width="1.5" stroke-linecap="round" stroke-opacity="0.6"/>
  <line x1="50" y1="14" x2="44" y2="14" stroke="#FFC627" stroke-width="1.5" stroke-linecap="round" stroke-opacity="0.6"/>
  <line x1="50" y1="14" x2="50" y2="20" stroke="#FFC627" stroke-width="1.5" stroke-linecap="round" stroke-opacity="0.6"/>
  <line x1="14" y1="50" x2="20" y2="50" stroke="#FFC627" stroke-width="1.5" stroke-linecap="round" stroke-opacity="0.6"/>
  <line x1="14" y1="50" x2="14" y2="44" stroke="#FFC627" stroke-width="1.5" stroke-linecap="round" stroke-opacity="0.6"/>
  <line x1="50" y1="50" x2="44" y2="50" stroke="#FFC627" stroke-width="1.5" stroke-linecap="round" stroke-opacity="0.6"/>
  <line x1="50" y1="50" x2="50" y2="44" stroke="#FFC627" stroke-width="1.5" stroke-linecap="round" stroke-opacity="0.6"/>
</svg>
